<svg width="118" height="118" viewBox="0 0 118 118" fill="none" xmlns="http://www.w3.org/2000/svg">
<circle cx="59" cy="59" r="59" fill="#202124"/>
<path d="M29.9368 86.126V74.501C29.9368 72.3609 31.6717 70.626 33.8118 70.626H84.1868C86.3269 70.626 88.0618 72.3609 88.0618 74.501V86.126" stroke="white" stroke-width="3" stroke-linecap="round" stroke-linejoin="round"/>
<path d="M35.7491 70.6255V60.2922C35.6621 57.5287 37.8295 55.2168 40.5929 55.1255H54.1554C56.9181 55.2182 59.0847 57.5292 58.9991 60.2922V70.6255" stroke="white" stroke-width="3" stroke-linecap="round" stroke-linejoin="round"/>
<path d="M41.5607 55.125V49.3125" stroke="white" stroke-width="3" stroke-linecap="round" stroke-linejoin="round"/>
<path d="M43.4994 62.875H47.3744" stroke="white" stroke-width="3" stroke-linecap="round" stroke-linejoin="round"/>
<path fill-rule="evenodd" clip-rule="evenodd" d="M72.5607 47.3755C76.8409 47.3755 80.3107 43.9057 80.3107 39.6255C80.3107 35.3453 76.8409 31.8755 72.5607 31.8755C68.2805 31.8755 64.8107 35.3453 64.8107 39.6255C64.8107 43.9057 68.2805 47.3755 72.5607 47.3755Z" stroke="white" stroke-width="3" stroke-linecap="round" stroke-linejoin="round"/>
<path d="M84.1874 62.8747C84.1885 58.1663 81.3494 53.9222 76.9971 52.1261C72.6448 50.3299 67.6388 51.3364 64.319 54.6752" stroke="white" stroke-width="3" stroke-linecap="round" stroke-linejoin="round"/>
<path fill-rule="evenodd" clip-rule="evenodd" d="M33.8121 42.7077C33.8121 42.0979 34.3065 41.6035 34.9163 41.6035H48.208C48.8178 41.6035 49.3121 42.0979 49.3121 42.7077V48.2493C49.3121 48.8592 48.8178 49.3535 48.208 49.3535H34.9163C34.3065 49.3535 33.8121 48.8592 33.8121 48.2493V42.7077Z" stroke="white" stroke-width="3" stroke-linecap="round" stroke-linejoin="round"/>
</svg>
