<svg width="118" height="118" viewBox="0 0 118 118" fill="none" xmlns="http://www.w3.org/2000/svg">
<circle cx="59" cy="59" r="59" fill="#202124"/>
<path d="M76.9722 82.25H68.1812" stroke="white" stroke-width="3" stroke-linecap="round" stroke-linejoin="round"/>
<path d="M61.4723 82.25H57.0754V64.8125H80.3254V80.3125" stroke="white" stroke-width="3" stroke-linecap="round" stroke-linejoin="round"/>
<path d="M80.3254 80.3126V69.2275L84.5156 70.5192C86.5788 71.0929 88.0241 72.9483 88.0754 75.0891V81.0592C88.0475 81.7451 87.4697 82.2789 86.7838 82.2527H83.6838" stroke="white" stroke-width="3" stroke-linecap="round" stroke-linejoin="round"/>
<path d="M53.2004 55.2103V44.7633C53.2004 44.0656 52.6349 43.5 51.9372 43.5H42.8413C42.5058 43.4993 42.1838 43.6321 41.9463 43.8691C41.7089 44.1061 41.5754 44.4278 41.5754 44.7633V55.2103" stroke="white" stroke-width="3" stroke-linecap="round" stroke-linejoin="round"/>
<path d="M29.9504 41.5625L47.3879 29.9375L64.8254 41.5625" stroke="white" stroke-width="3" stroke-linecap="round" stroke-linejoin="round"/>
<path d="M60.9504 55.2075V38.979" stroke="white" stroke-width="3" stroke-linecap="round" stroke-linejoin="round"/>
<path d="M33.8254 38.979L33.8332 55.2101" stroke="white" stroke-width="3" stroke-linecap="round" stroke-linejoin="round"/>
<path fill-rule="evenodd" clip-rule="evenodd" d="M64.8254 88.0625C66.9655 88.0625 68.7004 86.3276 68.7004 84.1875C68.7004 82.0474 66.9655 80.3125 64.8254 80.3125C62.6853 80.3125 60.9504 82.0474 60.9504 84.1875C60.9504 86.3276 62.6853 88.0625 64.8254 88.0625Z" stroke="white" stroke-width="3" stroke-linecap="round" stroke-linejoin="round"/>
<path fill-rule="evenodd" clip-rule="evenodd" d="M80.3254 88.0625C82.4655 88.0625 84.2004 86.3276 84.2004 84.1875C84.2004 82.0474 82.4655 80.3125 80.3254 80.3125C78.1853 80.3125 76.4504 82.0474 76.4504 84.1875C76.4504 86.3276 78.1853 88.0625 80.3254 88.0625Z" stroke="white" stroke-width="3" stroke-linecap="round" stroke-linejoin="round"/>
<path d="M45.4504 60.9375V62.875" stroke="white" stroke-width="3" stroke-linecap="round" stroke-linejoin="round"/>
<path d="M45.4504 70.625V72.5625" stroke="white" stroke-width="3" stroke-linecap="round" stroke-linejoin="round"/>
<path d="M45.4504 80.3125C45.4504 82.4526 47.1853 84.1875 49.3254 84.1875" stroke="white" stroke-width="3" stroke-linecap="round" stroke-linejoin="round"/>
</svg>
