<svg width="18" height="18" viewBox="0 0 18 18" fill="none" xmlns="http://www.w3.org/2000/svg">
<path d="M13.1236 10.7865C12.8997 10.6748 11.7988 10.1363 11.5938 10.0613C11.3881 9.98701 11.2389 9.95026 11.0889 10.1738C10.9404 10.3965 10.5109 10.8983 10.3805 11.0468C10.2502 11.196 10.119 11.214 9.89523 11.103C9.67142 10.9905 8.94949 10.7558 8.09418 9.99676C7.42877 9.40577 6.97888 8.67602 6.84851 8.45252C6.71815 8.22977 6.83495 8.10902 6.94648 7.99802C7.04746 7.89827 7.17105 7.73777 7.28257 7.60802C7.39486 7.47752 7.43178 7.38452 7.50714 7.23527C7.58175 7.08677 7.54482 6.95702 7.4883 6.84527C7.43178 6.73352 6.98416 5.63627 6.79802 5.19002C6.61566 4.75577 6.43103 4.81502 6.29388 4.80752C6.16351 4.80152 6.0143 4.80002 5.86434 4.80002C5.71513 4.80002 5.47248 4.85552 5.26751 5.07902C5.06253 5.30177 4.48379 5.84102 4.48379 6.93827C4.48379 8.03477 5.28635 9.09452 5.39788 9.24376C5.51016 9.39227 6.97738 11.6438 9.22379 12.609C9.75808 12.8385 10.1748 12.9758 10.5004 13.0778C11.0369 13.248 11.5252 13.224 11.9103 13.1663C12.3406 13.1025 13.2351 12.627 13.422 12.1065C13.6089 11.586 13.6089 11.1398 13.5523 11.0468C13.4966 10.9538 13.3474 10.8983 13.1228 10.7865H13.1236ZM9.03766 16.3388H9.03464C7.70064 16.3389 6.39115 15.9819 5.24339 15.3053L4.97135 15.1448L2.15222 15.8813L2.90429 13.1453L2.7272 12.8648C1.98149 11.683 1.58699 10.3153 1.5893 8.91977C1.59005 4.83227 4.93217 1.50678 9.04067 1.50678C11.0301 1.50678 12.9005 2.27928 14.3067 3.68027C15.0005 4.36774 15.5504 5.18532 15.9246 6.0857C16.2988 6.98609 16.4899 7.9514 16.4868 8.92577C16.4845 13.0133 13.1431 16.3388 9.03766 16.3388ZM15.3775 2.61603C14.5472 1.78422 13.5593 1.12468 12.471 0.67563C11.3827 0.226578 10.2158 -0.00305718 9.03766 3.07331e-05C4.09796 3.07331e-05 0.0776185 4.00127 0.0753578 8.91902C0.0753578 10.491 0.487565 12.0255 1.27204 13.3778L0 18L4.75131 16.7595C6.06524 17.4719 7.53761 17.8453 9.03389 17.8455H9.03766C13.9766 17.8455 17.9977 13.8443 18 8.92577C18.0036 7.75372 17.7737 6.59259 17.3236 5.50955C16.8734 4.4265 16.212 3.44303 15.3775 2.61603Z" fill="white"/>
</svg>
